<?xml version="1.0" encoding="utf-8"?>
<!-- Generator: Adobe Illustrator 24.0.0, SVG Export Plug-In . SVG Version: 6.00 Build 0)  -->
<svg version="1.1" id="图层_1" xmlns="http://www.w3.org/2000/svg" xmlns:xlink="http://www.w3.org/1999/xlink" x="0px" y="0px"
	 viewBox="0 0 85.04 85.04" style="enable-background:new 0 0 85.04 85.04;" xml:space="preserve">
<style type="text/css">
	.st0{fill:#B412FF;}
	.st1{fill:#050001;}
	.st2{fill:none;stroke:#050001;stroke-width:3;stroke-linecap:round;stroke-linejoin:round;stroke-miterlimit:10;}
	.st3{fill:none;stroke:#050001;stroke-width:7;stroke-linecap:round;stroke-linejoin:round;stroke-miterlimit:10;}
	.st4{fill:none;stroke:#FFFFFF;stroke-width:2;stroke-linecap:round;stroke-linejoin:round;stroke-miterlimit:10;}
</style>
<path class="st0" d="M61.91,73.17c6.85-4.24,5.57-10,5.56-10.06c-0.11-0.45,0-0.93,0.29-1.29s0.74-0.54,1.2-0.56
	c0.35,0.01,8.52-0.04,9.11-10.55c0.6-10.64-12.5-12.78-13.06-12.86c-0.82-0.13-1.38-0.89-1.26-1.71c0.12-0.82,0.88-1.38,1.71-1.26
	c2.66,0.4,6.41,1.6,9.57,3.87c0.96-2.4,2.31-7.01,0.54-10.84c-1.28-2.76-4.04-4.72-8.19-5.83c-1,3.44-3.15,6.59-6.41,8.26
	c-0.74,0.38-1.64,0.09-2.02-0.65c-0.38-0.74-0.09-1.64,0.65-2.02c4.83-2.47,6.54-9.48,4.78-13.87c-1.06-2.64-4.62-6.34-9.13-7.98
	c-4.01-1.46-8.03-1.14-11.95,0.96c-10.38,5.55-11.09,14.16-11.1,14.25c-0.04,0.56-0.38,1.04-0.89,1.27c-0.51,0.23-1.1,0.15-1.54-0.2
	c-0.17-0.13-4.4-3.27-10.78,0.54c-6.37,3.81-4.2,13.27-4.17,13.37c0.19,0.8-0.3,1.61-1.11,1.81c-0.12,0.03-0.24,0.04-0.35,0.04
	c-0.65,0-1.24-0.43-1.43-1.08c-2.54,1.23-5.38,3.55-6.56,7.91c-2.27,8.4,5.16,12.96,5.48,13.15c0.71,0.42,0.94,1.34,0.52,2.05
	c-0.28,0.47-0.78,0.74-1.29,0.74c-0.24,0-0.48-0.06-0.71-0.19c1.43,6.15,5.8,15.94,19.11,20.21c4.12,1.32,7.99,1.81,11.47,1.81
	c9.66,0,16.29-3.77,16.66-3.98c0.2-0.12,0.34-0.31,0.39-0.51c0.08,0.02,0.16,0.04,0.24,0.04c0.12,0,0.25-0.03,0.37-0.08
	c1.55-0.75,2.88-1.56,4.06-2.4c-0.08-0.08-0.16-0.17-0.22-0.27C60.98,74.53,61.2,73.6,61.91,73.17z"/>
<path class="st1" d="M77.4,40.81c1.1-2.42,3.41-8.68,0.88-14.15c-1.69-3.67-5.18-6.18-10.35-7.53c0.23-2.28-0.02-4.54-0.79-6.45
	C65.81,9.35,61.64,4.96,56.25,3c-4.78-1.74-9.76-1.35-14.39,1.13c-8.61,4.61-11.39,11.13-12.27,14.49
	c-2.39-0.98-6.73-1.81-12.16,1.44c-5.74,3.43-6.24,9.88-5.97,13.67c-3.34,1.42-7.42,4.31-9.01,10.17
	c-2.3,8.51,3.47,14.52,6.84,16.51c0.02,0.01,0.03,0.01,0.05,0.02c0.23,0.12,0.47,0.19,0.71,0.19c0.51,0,1.01-0.26,1.29-0.74
	c0.42-0.71,0.19-1.63-0.52-2.05c-0.32-0.19-7.75-4.74-5.48-13.15c1.18-4.35,4.02-6.67,6.56-7.91c0.19,0.65,0.77,1.08,1.43,1.08
	c0.12,0,0.23-0.01,0.35-0.04c0.8-0.19,1.3-1,1.11-1.81c-0.02-0.1-2.2-9.56,4.17-13.37c6.38-3.81,10.61-0.67,10.78-0.54
	c0.44,0.35,1.03,0.42,1.54,0.2c0.51-0.22,0.85-0.71,0.89-1.27c0.01-0.09,0.72-8.69,11.1-14.25c3.92-2.1,7.94-2.42,11.95-0.96
	c4.51,1.64,8.07,5.34,9.13,7.98c1.76,4.38,0.06,11.4-4.78,13.87c-0.74,0.38-1.03,1.28-0.65,2.02c0.38,0.74,1.28,1.03,2.02,0.65
	c3.26-1.67,5.41-4.82,6.41-8.26c4.15,1.11,6.92,3.06,8.19,5.83c1.77,3.83,0.42,8.43-0.54,10.84c-3.16-2.27-6.9-3.46-9.57-3.87
	c-0.82-0.12-1.58,0.44-1.71,1.26c-0.13,0.82,0.44,1.58,1.26,1.71c0.56,0.09,13.67,2.22,13.06,12.86
	c-0.59,10.52-8.76,10.56-9.11,10.55c-0.46,0.01-0.91,0.2-1.2,0.56s-0.4,0.84-0.29,1.29c0.01,0.06,1.29,5.82-5.56,10.06
	c-0.7,0.44-0.92,1.36-0.49,2.06c0.06,0.1,0.14,0.19,0.22,0.27c0.28,0.29,0.67,0.44,1.06,0.44c0.27,0,0.54-0.07,0.79-0.22
	c6.32-3.91,7.13-9.02,7.08-11.62c3.2-0.55,9.92-2.95,10.5-13.22C81.3,46.56,79.73,43.26,77.4,40.81z"/>
<path class="st2" d="M40.53,62.22c-0.38-0.02-9.68-11.02-17.97-5.41"/>
<g>
	<g>
		<line class="st3" x1="24.13" y1="45.59" x2="26.63" y2="40.09"/>
		<line class="st3" x1="47.37" y1="46.88" x2="49.86" y2="41.38"/>
		<line class="st3" x1="36.02" y1="44.83" x2="37.89" y2="40.71"/>
	</g>
	<line class="st4" x1="48.62" y1="40.29" x2="47.53" y2="42.52"/>
	<line class="st4" x1="36.57" y1="39.39" x2="35.48" y2="41.62"/>
	<line class="st4" x1="24.78" y1="39.39" x2="23.69" y2="41.62"/>
</g>
</svg>
